<?xml version="1.0" encoding="UTF-8" standalone="no"?><!DOCTYPE svg PUBLIC "-//W3C//DTD SVG 1.1//EN" "http://www.w3.org/Graphics/SVG/1.1/DTD/svg11.dtd"><svg width="100%" height="100%" viewBox="0 0 209 180" version="1.1" xmlns="http://www.w3.org/2000/svg" xmlns:xlink="http://www.w3.org/1999/xlink" xml:space="preserve" xmlns:serif="http://www.serif.com/" style="fill-rule:evenodd;clip-rule:evenodd;stroke-linejoin:round;stroke-miterlimit:2;"><path d="M155.966,9.668l0,41.817l-51.989,29.006l0.001,-58.114l37.377,-20.499c1.452,-0.813 3.097,-1.25 4.775,-1.267c1.678,-0.017 3.332,0.386 4.802,1.17c1.47,0.783 2.706,1.921 3.588,3.303c0.882,1.382 1.38,2.961 1.446,4.584Z" style="fill:#fc0071;fill-rule:nonzero;"/><path d="M51.988,9.668l-0,41.817l51.99,29.006l-0.001,-58.114l-37.377,-20.499c-1.452,-0.813 -3.097,-1.25 -4.775,-1.267c-1.679,-0.017 -3.332,0.386 -4.802,1.17c-1.47,0.783 -2.706,1.921 -3.588,3.303c-0.882,1.382 -1.38,2.961 -1.447,4.584Z" style="fill:#fb71af;fill-opacity:0.3;fill-rule:nonzero;"/><path d="M145.549,173.841l-36.351,-20.753l0.586,-59.472l50.518,28.84l-0.73,42.581c-0.014,1.663 -0.45,3.306 -1.268,4.77c-0.819,1.463 -1.989,2.697 -3.4,3.583c-1.41,0.885 -3.013,1.392 -4.652,1.472c-1.639,0.078 -3.259,-0.273 -4.703,-1.021Z" style="fill:#fc0071;fill-rule:nonzero;"/><path d="M197.15,83.686l-36.351,-20.752l-51.015,30.682l50.518,28.84l36.368,-22.235c1.428,-0.856 2.624,-2.066 3.471,-3.511c0.848,-1.447 1.319,-3.081 1.367,-4.744c0.049,-1.664 -0.328,-3.3 -1.091,-4.751c-0.764,-1.45 -1.889,-2.666 -3.267,-3.529Z" style="fill:#fb71af;fill-opacity:0.3;fill-rule:nonzero;"/><path d="M59.474,173.841l36.351,-20.753l-0.585,-59.472l-50.519,28.84l0.73,42.581c0.014,1.663 0.451,3.306 1.269,4.77c0.818,1.463 1.988,2.697 3.399,3.583c1.411,0.885 3.013,1.392 4.652,1.472c1.639,0.078 3.259,-0.273 4.703,-1.021Z" style="fill:#fb71af;fill-opacity:0.3;fill-rule:nonzero;"/><path d="M7.873,83.686l36.352,-20.752l51.015,30.682l-50.519,28.84l-36.368,-22.235c-1.428,-0.856 -2.624,-2.066 -3.471,-3.511c-0.848,-1.447 -1.319,-3.081 -1.367,-4.744c-0.048,-1.664 0.327,-3.3 1.091,-4.751c0.763,-1.45 1.889,-2.666 3.267,-3.529Z" style="fill:#fc0071;fill-rule:nonzero;"/></svg>