<?xml version="1.0" encoding="UTF-8" standalone="no"?><!DOCTYPE svg PUBLIC "-//W3C//DTD SVG 1.1//EN" "http://www.w3.org/Graphics/SVG/1.1/DTD/svg11.dtd"><svg width="100%" height="100%" viewBox="0 0 2188 625" version="1.1" xmlns="http://www.w3.org/2000/svg" xmlns:xlink="http://www.w3.org/1999/xlink" xml:space="preserve" xmlns:serif="http://www.serif.com/" style="fill-rule:evenodd;clip-rule:evenodd;stroke-linecap:round;stroke-linejoin:round;stroke-miterlimit:1.5;"><g><path d="M507.867,174.504l-0,70.088l-92.842,48.612l0,-97.4l66.75,-34.358c2.592,-1.363 5.529,-2.092 8.529,-2.121c2.996,-0.029 5.95,0.646 8.575,1.958c2.625,1.313 4.829,3.221 6.404,5.538c1.575,2.316 2.467,4.962 2.584,7.683Z" style="fill:#fc0071;fill-rule:nonzero;"/><path d="M322.183,174.504l0,70.088l92.842,48.612l0,-97.4l-66.75,-34.358c-2.592,-1.363 -5.529,-2.092 -8.525,-2.121c-3,-0.029 -5.954,0.646 -8.579,1.958c-2.625,1.313 -4.829,3.221 -6.404,5.538c-1.575,2.316 -2.467,4.962 -2.584,7.683Z" style="fill:#fb71af;fill-opacity:0.3;fill-rule:nonzero;"/><path d="M489.267,449.667l-64.917,-34.784l1.046,-99.679l90.212,48.338l-1.3,71.366c-0.025,2.788 -0.804,5.542 -2.266,7.996c-1.463,2.45 -3.55,4.521 -6.071,6.004c-2.521,1.484 -5.379,2.334 -8.308,2.467c-2.925,0.133 -5.821,-0.458 -8.396,-1.708Z" style="fill:#fc0071;fill-rule:nonzero;"/><path d="M581.417,298.563l-64.921,-34.784l-91.1,51.425l90.212,48.338l64.95,-37.267c2.55,-1.433 4.684,-3.463 6.196,-5.887c1.517,-2.425 2.358,-5.163 2.442,-7.951c0.087,-2.787 -0.583,-5.529 -1.946,-7.962c-1.367,-2.429 -3.375,-4.467 -5.833,-5.913Z" style="fill:#fb71af;fill-opacity:0.3;fill-rule:nonzero;"/><path d="M335.55,449.667l64.917,-34.784l-1.046,-99.679l-90.217,48.338l1.304,71.366c0.025,2.788 0.805,5.542 2.267,7.996c1.458,2.45 3.55,4.521 6.071,6.004c2.516,1.484 5.379,2.334 8.308,2.467c2.925,0.133 5.817,-0.458 8.396,-1.708Z" style="fill:#fb71af;fill-opacity:0.3;fill-rule:nonzero;"/><path d="M243.4,298.563l64.917,-34.784l91.104,51.425l-90.217,48.338l-64.946,-37.267c-2.55,-1.433 -4.687,-3.463 -6.2,-5.887c-1.512,-2.425 -2.354,-5.163 -2.441,-7.951c-0.084,-2.787 0.587,-5.529 1.95,-7.962c1.362,-2.429 3.375,-4.467 5.833,-5.913Z" style="fill:#fc0071;fill-rule:nonzero;"/></g><text x="674.563px" y="393.75px" style="font-family:'NotoSans-Bold', 'Noto Sans', sans-serif;font-weight:700;font-size:312.5px;fill:#fc0071;">Wajahat</text><path d="M2147.22,181.013c0,-72.571 -58.917,-131.488 -131.487,-131.488l-1843.98,-0c-72.57,-0 -131.487,58.917 -131.487,131.488l0,262.974c0,72.571 58.917,131.488 131.488,131.488l1843.98,0c72.57,0 131.487,-58.917 131.487,-131.488l0,-262.975Z" style="fill:none;stroke:url(#_Linear1);stroke-width:32.33px;"/><defs><linearGradient id="_Linear1" x1="0" y1="0" x2="1" y2="0" gradientUnits="userSpaceOnUse" gradientTransform="matrix(2106.95,0,0,2106.95,40.2752,312.5)"><stop offset="0" style="stop-color:#fe009d;stop-opacity:1"/><stop offset="1" style="stop-color:#fc0071;stop-opacity:1"/></linearGradient></defs></svg>